<svg id="Layer_1" data-name="Layer 1" xmlns="http://www.w3.org/2000/svg" viewBox="0 0 278.96 69.35"><defs><style>.cls-1{fill:#1b222b;}</style></defs><path class="cls-1" d="M416.69,337a37.15,37.15,0,0,0-18,4.46h0l0,0A35.4,35.4,0,0,0,386,389.44a33.46,33.46,0,0,0,12.74,12.44,38.41,38.41,0,0,0,31.4,2.05,29.06,29.06,0,0,0,11-7.33l3-3.23-9-9.32-3.34,3.27c-4,3.91-8.66,5.77-14.93,5.77a22.22,22.22,0,0,1-11.27-2.78l-.06,0a19.27,19.27,0,0,1-7.75-7.54l0,0v0a20.8,20.8,0,0,1-2.82-11,20.38,20.38,0,0,1,2.82-10.91v0l0,0a20,20,0,0,1,7.79-7.64,23,23,0,0,1,11.29-2.81c6.36,0,11.05,1.88,14.93,5.69l3.33,3.28,9.05-9.33-3-3.23a29.16,29.16,0,0,0-11-7.25h0A38.56,38.56,0,0,0,416.69,337Zm-251.48.42V350.6h27.73a26.13,26.13,0,0,1,12.31,2.77,19.43,19.43,0,0,1,7.79,7.27,22.1,22.1,0,0,1,2.76,11A21.72,21.72,0,0,1,213,382.73a19,19,0,0,1-7.78,7.34,26.11,26.11,0,0,1-12.31,2.69H178.81V367h-13.6v38.9h28.08a38.93,38.93,0,0,0,18.52-4.36,33.35,33.35,0,0,0,12.95-12.18v0l0,0a36,36,0,0,0,0-35.23l0,0v0a34.1,34.1,0,0,0-12.9-12.24l0,0h0a38.93,38.93,0,0,0-18.52-4.36Zm94,0-31.52,68.51h14.89L264.26,358l21.8,47.9h14.88l-31.5-68.51Zm33.56,0V350.6h21.32v55.33h13.59V350.6H349V337.42Zm63.44,0v68.51h13.6V337.42Zm33.6,18.6,0,0,0,0Zm0,31.34,0,0,0,0Zm11.31,11h0l0,0Zm0,0" transform="translate(-165.21 -337)"/></svg>